<svg xmlns="http://www.w3.org/2000/svg" width="30" height="30" fill="none" viewBox="0 0 30 30">
    <g clip-path="url(#clip0)">
        <path fill="#C3DAFE" d="M1.66667 0H28.3333C28.7754 0 29.1993 0.22254 29.5118 0.618663C29.8244 1.01479 30 1.55204 30 2.11224C30 2.67245 29.8244 3.2097 29.5118 3.60583C29.1993 4.00195 28.7754 4.22449 28.3333 4.22449H1.66667C1.22464 4.22449 0.800716 4.00195 0.488155 3.60583C0.175595 3.2097 0 2.67245 0 2.11224C0 1.55204 0.175595 1.01479 0.488155 0.618663C0.800716 0.22254 1.22464 0 1.66667 0ZM1.66667 12.6735H28.3333C28.7754 12.6735 29.1993 12.896 29.5118 13.2921C29.8244 13.6883 30 14.2255 30 14.7857C30 15.3459 29.8244 15.8832 29.5118 16.2793C29.1993 16.6754 28.7754 16.898 28.3333 16.898H1.66667C1.22464 16.898 0.800716 16.6754 0.488155 16.2793C0.175595 15.8832 0 15.3459 0 14.7857C0 14.2255 0.175595 13.6883 0.488155 13.2921C0.800716 12.896 1.22464 12.6735 1.66667 12.6735ZM1.66667 25.3469H28.3333C28.7754 25.3469 29.1993 25.5695 29.5118 25.9656C29.8244 26.3617 30 26.899 30 27.4592C30 28.0194 29.8244 28.5566 29.5118 28.9528C29.1993 29.3489 28.7754 29.5714 28.3333 29.5714H1.66667C1.22464 29.5714 0.800716 29.3489 0.488155 28.9528C0.175595 28.5566 0 28.0194 0 27.4592C0 26.899 0.175595 26.3617 0.488155 25.9656C0.800716 25.5695 1.22464 25.3469 1.66667 25.3469Z"/>
    </g>
    <defs>
        <clipPath id="clip0">
            <rect width="30" height="29.5714" fill="white"/>
        </clipPath>
    </defs>
</svg>
