<svg width="40" height="40" viewBox="0 0 40 40" fill="none" xmlns="http://www.w3.org/2000/svg">
<path d="M38.8445 32.5776C39.5726 33.4278 39.9531 34.5215 39.9099 35.64C39.8667 36.7586 39.403 37.8197 38.6114 38.6112C37.8199 39.4027 36.7589 39.8664 35.6403 39.9096C34.5217 39.9528 33.4281 39.5724 32.5778 38.8443L20.0001 26.2665L7.42228 38.8443C6.57205 39.5724 5.47838 39.9528 4.35982 39.9096C3.24126 39.8664 2.1802 39.4027 1.38866 38.6112C0.597133 37.8197 0.133434 36.7586 0.0902286 35.64C0.0470235 34.5215 0.427497 33.4278 1.15561 32.5776L13.7334 19.9998L1.15561 7.42204C0.427497 6.57181 0.0470235 5.47814 0.0902286 4.35958C0.133434 3.24102 0.597133 2.17995 1.38866 1.38842C2.1802 0.596889 3.24126 0.13319 4.35982 0.0899845C5.47838 0.0467794 6.57205 0.427253 7.42228 1.15537L20.0001 13.7331L32.5778 1.15537C33.4281 0.427253 34.5217 0.0467794 35.6403 0.0899845C36.7589 0.13319 37.8199 0.596889 38.6114 1.38842C39.403 2.17995 39.8667 3.24102 39.9099 4.35958C39.9531 5.47814 39.5726 6.57181 38.8445 7.42204L26.2667 19.9998L38.8445 32.5776Z" fill="#BEE3F8"/>
</svg>
