<svg width="40" height="40" viewBox="0 0 40 40" fill="none" xmlns="http://www.w3.org/2000/svg">
<path fill-rule="evenodd" clip-rule="evenodd" d="M20 40C31.0457 40 40 31.0457 40 20C40 8.9543 31.0457 0 20 0C8.9543 0 0 8.9543 0 20C0 31.0457 8.9543 40 20 40ZM21.7383 28.1711C23.3659 27.8197 24.8504 26.9879 25.9999 25.7833C26.7 26.8193 27.7144 27.603 28.8936 28.0188C30.0728 28.4345 31.3544 28.4604 32.5494 28.0926C33.7444 27.7247 34.7896 26.9826 35.5309 25.9757C36.2722 24.9688 36.6703 23.7503 36.6666 22.5V20C36.6657 16.4243 35.5149 12.9438 33.3841 10.0724C31.2533 7.20092 28.2556 5.09088 24.8336 4.05386C21.4117 3.01684 17.7469 3.10783 14.3806 4.3134C11.0143 5.51896 8.12499 7.77517 6.13935 10.7488C4.15371 13.7224 3.17704 17.2558 3.35359 20.8271C3.53014 24.3984 4.85055 27.8182 7.1198 30.5815C9.38905 33.3448 12.4868 35.3051 15.9556 36.1727C19.4244 37.0404 23.0803 36.7695 26.3833 35.4C26.6006 35.3273 26.8006 35.2105 26.9707 35.057C27.1409 34.9035 27.2775 34.7165 27.3722 34.5078C27.4668 34.2991 27.5174 34.0732 27.5208 33.844C27.5242 33.6149 27.4802 33.3875 27.3918 33.1761C27.3033 32.9647 27.1722 32.7738 27.0066 32.6154C26.8411 32.4569 26.6446 32.3343 26.4295 32.2552C26.2144 32.1761 25.9853 32.1423 25.7566 32.1557C25.5278 32.1691 25.3043 32.2296 25.0999 32.3333C22.4576 33.4272 19.5337 33.6425 16.7596 32.9475C13.9856 32.2525 11.5085 30.6841 9.69407 28.4737C7.87961 26.2632 6.82392 23.528 6.68284 20.6717C6.54175 17.8154 7.32275 14.9895 8.91054 12.611C10.4983 10.2325 12.8088 8.42758 15.5008 7.4626C18.1928 6.49762 21.1238 6.42374 23.861 7.25188C26.5983 8.08002 28.9967 9.76628 30.7023 12.0617C32.4079 14.3572 33.3303 17.1402 33.3332 20V22.5C33.3332 23.163 33.0699 23.7989 32.601 24.2678C32.1322 24.7366 31.4963 25 30.8333 25C30.1702 25 29.5343 24.7366 29.0655 24.2678C28.5966 23.7989 28.3333 23.163 28.3333 22.5V20C28.3333 17.7899 27.4553 15.6702 25.8925 14.1074C24.3297 12.5446 22.2101 11.6667 19.9999 11.6667C17.7898 11.6667 15.6702 12.5446 14.1074 14.1074C12.5446 15.6702 11.6666 17.7899 11.6666 20C11.6582 21.665 12.1498 23.2942 13.0777 24.6767C14.0057 26.0592 15.3272 27.1313 16.8712 27.7543C18.4153 28.3773 20.1108 28.5225 21.7383 28.1711ZM23.5355 23.5355C22.5978 24.4732 21.326 25 19.9999 25C18.6738 25 17.4021 24.4732 16.4644 23.5355C15.5267 22.5979 14.9999 21.3261 14.9999 20C14.9999 18.6739 15.5267 17.4021 16.4644 16.4645C17.4021 15.5268 18.6738 15 19.9999 15C21.326 15 22.5978 15.5268 23.5355 16.4645C24.4731 17.4021 24.9999 18.6739 24.9999 20C24.9999 21.3261 24.4731 22.5979 23.5355 23.5355Z" fill="#BEE3F8"/>
</svg>
