<svg xmlns="http://www.w3.org/2000/svg" width="40" height="40" fill="none" viewBox="0 0 40 40">
    <circle cx="20" cy="20" r="20" fill="#C3DAFE"/>
    <path fill="#434190" d="M26 25.7833C24.8505 26.9879 23.3659 27.8197 21.7384 28.1711C20.1109 28.5225 18.4154 28.3773 16.8713 27.7543C15.3272 27.1313 14.0057 26.0592 13.0778 24.6767C12.1499 23.2942 11.6583 21.665 11.6667 20C11.6667 17.7899 12.5446 15.6702 14.1074 14.1074C15.6702 12.5446 17.7899 11.6667 20 11.6667C22.2101 11.6667 24.3297 12.5446 25.8925 14.1074C27.4553 15.6702 28.3333 17.7899 28.3333 20V22.5C28.3333 23.163 28.5967 23.7989 29.0656 24.2678C29.5344 24.7366 30.1703 25 30.8333 25C31.4964 25 32.1322 24.7366 32.6011 24.2678C33.0699 23.7989 33.3333 23.163 33.3333 22.5V20C33.3303 17.1402 32.408 14.3572 30.7024 12.0617C28.9968 9.76628 26.5983 8.08002 23.8611 7.25188C21.1239 6.42375 18.1929 6.49762 15.5009 7.4626C12.8088 8.42758 10.4984 10.2325 8.9106 12.611C7.32281 14.9895 6.54181 17.8154 6.6829 20.6717C6.82398 23.528 7.87967 26.2632 9.69413 28.4737C11.5086 30.6841 13.9857 32.2525 16.7597 32.9475C19.5337 33.6425 22.4577 33.4272 25.1 32.3333C25.3043 32.2296 25.5279 32.1691 25.7566 32.1557C25.9854 32.1423 26.2145 32.1761 26.4296 32.2552C26.6447 32.3343 26.8411 32.4569 27.0067 32.6154C27.1723 32.7738 27.3034 32.9647 27.3918 33.1761C27.4803 33.3875 27.5242 33.6149 27.5209 33.844C27.5175 34.0732 27.4669 34.2991 27.3723 34.5078C27.2776 34.7166 27.1409 34.9035 26.9708 35.057C26.8006 35.2105 26.6006 35.3273 26.3833 35.4C23.0803 36.7695 19.4245 37.0404 15.9557 36.1727C12.4869 35.3051 9.38912 33.3448 7.11986 30.5815C4.85061 27.8182 3.5302 24.3984 3.35365 20.8271C3.1771 17.2558 4.15377 13.7224 6.13941 10.7488C8.12505 7.77517 11.0144 5.51896 14.3807 4.3134C17.747 3.10783 21.4117 3.01684 24.8337 4.05386C28.2557 5.09088 31.2534 7.20092 33.3842 10.0724C35.5149 12.9438 36.6658 16.4243 36.6667 20V22.5C36.6704 23.7503 36.2723 24.9688 35.531 25.9757C34.7897 26.9826 33.7445 27.7247 32.5495 28.0926C31.3544 28.4604 30.0728 28.4345 28.8936 28.0188C27.7144 27.603 26.7 26.8193 26 25.7833ZM20 25C21.3261 25 22.5978 24.4732 23.5355 23.5355C24.4732 22.5979 25 21.3261 25 20C25 18.6739 24.4732 17.4021 23.5355 16.4645C22.5978 15.5268 21.3261 15 20 15C18.6739 15 17.4021 15.5268 16.4645 16.4645C15.5268 17.4021 15 18.6739 15 20C15 21.3261 15.5268 22.5979 16.4645 23.5355C17.4021 24.4732 18.6739 25 20 25Z"/>
</svg>
