<svg width="588" height="363" viewBox="0 0 588 363" fill="none" xmlns="http://www.w3.org/2000/svg">
<g clip-path="url(#clip0)">
<path opacity="0.1" d="M0 362.996H568.265C568.265 362.996 618.083 298.466 559.445 232.134C537.686 207.535 536.031 177.118 542.549 148.585C560.169 71.4574 489.654 3.2009 413.148 23.2323C411.691 23.6171 410.219 24.007 408.736 24.4121C293.418 55.882 199.004 24.2551 162.667 8.59863C148.188 2.33268 132.48 -0.572129 116.72 0.102012C75.939 1.92489 14.1383 17.6421 71.5417 104.218C152.47 226.27 0 362.996 0 362.996Z" fill="#BEE3F8"/>
<path d="M136.879 352.367C143.167 352.367 148.265 345.69 148.265 337.454C148.265 329.219 143.167 322.542 136.879 322.542C130.591 322.542 125.494 329.219 125.494 337.454C125.494 345.69 130.591 352.367 136.879 352.367Z" fill="#1A202C"/>
<path d="M136.879 334.138C143.167 334.138 148.265 327.461 148.265 319.226C148.265 310.99 143.167 304.313 136.879 304.313C130.591 304.313 125.494 310.99 125.494 319.226C125.494 327.461 130.591 334.138 136.879 334.138Z" fill="#1A202C"/>
<path d="M136.879 315.909C143.167 315.909 148.265 309.233 148.265 300.997C148.265 292.761 143.167 286.085 136.879 286.085C130.591 286.085 125.494 292.761 125.494 300.997C125.494 309.233 130.591 315.909 136.879 315.909Z" fill="#1A202C"/>
<path d="M136.879 297.68C143.167 297.68 148.265 291.004 148.265 282.768C148.265 274.532 143.167 267.856 136.879 267.856C130.591 267.856 125.494 274.532 125.494 282.768C125.494 291.004 130.591 297.68 136.879 297.68Z" fill="#1A202C"/>
<path d="M136.879 279.452C143.167 279.452 148.265 272.775 148.265 264.539C148.265 256.304 143.167 249.627 136.879 249.627C130.591 249.627 125.494 256.304 125.494 264.539C125.494 272.775 130.591 279.452 136.879 279.452Z" fill="#1A202C"/>
<path d="M136.879 261.223C143.167 261.223 148.265 254.546 148.265 246.311C148.265 238.075 143.167 231.399 136.879 231.399C130.591 231.399 125.494 238.075 125.494 246.311C125.494 254.546 130.591 261.223 136.879 261.223Z" fill="#3F3D56"/>
<path d="M136.879 242.994C143.167 242.994 148.265 236.318 148.265 228.082C148.265 219.846 143.167 213.17 136.879 213.17C130.591 213.17 125.494 219.846 125.494 228.082C125.494 236.318 130.591 242.994 136.879 242.994Z" fill="#3F3D56"/>
<path d="M231.506 350.295C234.999 350.295 237.831 346.587 237.831 342.012C237.831 337.436 234.999 333.728 231.506 333.728C228.013 333.728 225.181 337.436 225.181 342.012C225.181 346.587 228.013 350.295 231.506 350.295Z" fill="#1A202C"/>
<path d="M231.506 340.168C234.999 340.168 237.831 336.46 237.831 331.885C237.831 327.309 234.999 323.601 231.506 323.601C228.013 323.601 225.181 327.309 225.181 331.885C225.181 336.46 228.013 340.168 231.506 340.168Z" fill="#1A202C"/>
<path d="M231.506 330.041C234.999 330.041 237.831 326.333 237.831 321.757C237.831 317.182 234.999 313.474 231.506 313.474C228.013 313.474 225.181 317.182 225.181 321.757C225.181 326.333 228.013 330.041 231.506 330.041Z" fill="#1A202C"/>
<path d="M231.506 319.914C234.999 319.914 237.831 316.205 237.831 311.63C237.831 307.055 234.999 303.346 231.506 303.346C228.013 303.346 225.181 307.055 225.181 311.63C225.181 316.205 228.013 319.914 231.506 319.914Z" fill="#1A202C"/>
<path d="M231.506 309.787C234.999 309.787 237.831 306.078 237.831 301.503C237.831 296.928 234.999 293.219 231.506 293.219C228.013 293.219 225.181 296.928 225.181 301.503C225.181 306.078 228.013 309.787 231.506 309.787Z" fill="#1A202C"/>
<path d="M231.506 299.66C234.999 299.66 237.831 295.951 237.831 291.376C237.831 286.801 234.999 283.092 231.506 283.092C228.013 283.092 225.181 286.801 225.181 291.376C225.181 295.951 228.013 299.66 231.506 299.66Z" fill="#1A202C"/>
<path d="M231.506 289.533C234.999 289.533 237.831 285.824 237.831 281.249C237.831 276.674 234.999 272.965 231.506 272.965C228.013 272.965 225.181 276.674 225.181 281.249C225.181 285.824 228.013 289.533 231.506 289.533Z" fill="#3F3D56"/>
<path d="M179.502 103.337C181.056 101.355 182.473 99.2688 183.742 97.0934L153.831 92.1767L186.186 92.4147C189.289 85.6573 190.982 78.3377 191.161 70.9034C191.34 63.4691 190.002 56.0764 187.229 49.1771L143.817 71.7099L183.844 42.2502C180.093 35.7657 175.048 30.1235 169.023 25.6751C162.998 21.2266 156.122 18.0673 148.824 16.3937C141.525 14.7201 133.961 14.5683 126.601 15.9476C119.241 17.3268 112.245 20.2077 106.046 24.4108C99.8477 28.6138 94.5806 34.049 90.5728 40.3777C86.565 46.7064 83.9024 53.7931 82.7508 61.1964C81.5993 68.5997 81.9835 76.1609 83.8795 83.4091C85.7755 90.6574 89.1427 97.4373 93.7713 103.327C91.3429 106.414 89.2544 109.755 87.5421 113.292L126.374 133.48L84.9766 119.57C82.0679 128.171 81.3488 137.361 82.8844 146.31C84.4201 155.258 88.162 163.682 93.7713 170.818C87.4447 178.868 83.5093 188.536 82.415 198.718C81.3207 208.9 83.1117 219.185 87.5832 228.396C92.0546 237.607 99.0261 245.374 107.701 250.808C116.375 256.241 126.403 259.123 136.637 259.123C146.871 259.123 156.898 256.241 165.573 250.808C174.247 245.374 181.219 237.607 185.69 228.396C190.161 219.185 191.952 208.9 190.858 198.718C189.764 188.536 185.828 178.868 179.502 170.818C187.061 161.198 191.17 149.315 191.17 137.078C191.17 124.84 187.061 112.957 179.502 103.337Z" fill="#BEE3F8"/>
<path opacity="0.1" d="M82.0972 137.08C82.0789 149.321 86.1925 161.21 93.7712 170.818C87.4446 178.868 83.5092 188.536 82.4149 198.718C81.3206 208.9 83.1116 219.185 87.5831 228.396C92.0545 237.607 99.026 245.374 107.701 250.808C116.375 256.241 126.403 259.123 136.636 259.123C146.87 259.123 156.898 256.241 165.572 250.808C174.247 245.374 181.218 237.607 185.69 228.396C190.161 219.185 191.952 208.9 190.858 198.718C189.764 188.536 185.828 178.868 179.502 170.818C186.809 161.532 82.0972 130.953 82.0972 137.08Z" fill="black"/>
<path d="M203.057 189.402C202.02 188.082 201.076 186.691 200.234 185.239L220.176 181.958L198.604 182.12C196.536 177.615 195.408 172.735 195.289 167.778C195.169 162.822 196.062 157.893 197.911 153.294L226.851 168.332L200.163 148.686C202.665 144.367 206.029 140.609 210.046 137.647C214.062 134.685 218.644 132.582 223.508 131.469C228.371 130.355 233.412 130.255 238.315 131.175C243.219 132.095 247.881 134.015 252.012 136.815C256.142 139.616 259.652 143.237 262.323 147.453C264.995 151.67 266.77 156.391 267.54 161.324C268.309 166.257 268.055 171.295 266.795 176.125C265.534 180.956 263.294 185.475 260.213 189.402C261.829 191.457 263.219 193.681 264.357 196.035L238.469 209.494L266.073 200.233C268.014 205.966 268.495 212.094 267.471 218.06C266.448 224.027 263.953 229.643 260.213 234.401C264.427 239.769 267.047 246.214 267.773 253.001C268.5 259.788 267.304 266.643 264.322 272.781C261.34 278.92 256.692 284.096 250.91 287.717C245.127 291.338 238.444 293.258 231.622 293.258C224.801 293.258 218.117 291.338 212.335 287.717C206.553 284.096 201.905 278.92 198.923 272.781C195.941 266.643 194.745 259.788 195.472 253.001C196.198 246.214 198.818 239.769 203.032 234.401C197.994 227.987 195.255 220.065 195.255 211.907C195.255 203.748 197.994 195.826 203.032 189.412L203.057 189.402Z" fill="#BEE3F8"/>
<path opacity="0.1" d="M267.996 211.879C268.007 220.041 265.265 227.968 260.213 234.376C264.427 239.743 267.047 246.189 267.774 252.976C268.5 259.763 267.304 266.617 264.322 272.756C261.34 278.895 256.692 284.071 250.91 287.692C245.128 291.313 238.444 293.233 231.623 293.233C224.801 293.233 218.118 291.313 212.335 287.692C206.553 284.071 201.905 278.895 198.923 272.756C195.941 266.617 194.745 259.763 195.472 252.976C196.198 246.189 198.818 239.743 203.032 234.376C198.184 228.198 267.996 207.828 267.996 211.879Z" fill="black"/>
<path d="M0 362.995C0 362.995 60.986 303.752 82.0974 323.682C103.209 343.612 192.345 348.913 200.558 347.738C208.77 346.564 256.853 344.219 283.829 347.151C310.805 350.083 558.271 338.938 568.24 362.995H0Z" fill="#1A202C"/>
<path opacity="0.1" d="M395.245 73.1377H367.819C368.481 72.3029 368.838 71.2667 368.831 70.2009C368.829 69.5986 368.712 69.0022 368.487 68.4438H381.137C382.381 68.4438 383.575 67.9493 384.454 67.069C385.334 66.1887 385.828 64.9948 385.828 63.7499C385.828 62.505 385.334 61.3111 384.454 60.4308C383.575 59.5506 382.381 59.056 381.137 59.056H305.522C304.279 59.06 303.088 59.5559 302.21 60.4353C301.331 61.3147 300.835 62.5063 300.831 63.7499C300.832 64.3528 300.95 64.9498 301.18 65.507H288.53C287.312 65.547 286.157 66.0593 285.309 66.9357C284.462 67.8121 283.988 68.9839 283.988 70.2034C283.988 71.423 284.462 72.5947 285.309 73.4711C286.157 74.3475 287.312 74.8598 288.53 74.8998H315.956C315.294 75.7327 314.937 76.7674 314.944 77.8316C314.948 79.0753 315.444 80.2669 316.323 81.1463C317.201 82.0257 318.392 82.5215 319.635 82.5255H395.245C396.489 82.5255 397.682 82.031 398.562 81.1507C399.442 80.2704 399.936 79.0765 399.936 77.8316C399.936 76.5867 399.442 75.3928 398.562 74.5125C397.682 73.6323 396.489 73.1377 395.245 73.1377Z" fill="#BEE3F8"/>
<path opacity="0.1" d="M518.978 140.599H491.552C492.223 139.768 492.589 138.731 492.589 137.662C492.59 137.06 492.473 136.463 492.245 135.905H504.896C506.14 135.905 507.333 135.411 508.213 134.531C509.092 133.65 509.587 132.456 509.587 131.211C509.587 129.967 509.092 128.773 508.213 127.892C507.333 127.012 506.14 126.518 504.896 126.518H429.26C428.017 126.522 426.827 127.017 425.948 127.897C425.069 128.776 424.573 129.968 424.569 131.211C424.568 131.814 424.685 132.411 424.914 132.969H412.263C411.045 133.009 409.89 133.521 409.043 134.397C408.195 135.274 407.721 136.445 407.721 137.665C407.721 138.884 408.195 140.056 409.043 140.933C409.89 141.809 411.045 142.321 412.263 142.361H439.689C439.027 143.194 438.67 144.229 438.677 145.293C438.681 146.537 439.177 147.728 440.056 148.608C440.935 149.487 442.125 149.983 443.368 149.987H518.978C520.222 149.987 521.416 149.493 522.295 148.612C523.175 147.732 523.669 146.538 523.669 145.293C523.669 144.048 523.175 142.854 522.295 141.974C521.416 141.094 520.222 140.599 518.978 140.599Z" fill="#BEE3F8"/>
<path opacity="0.1" d="M271.694 112.046H255.628C256.021 111.56 256.235 110.954 256.235 110.329C256.231 109.982 256.163 109.639 256.033 109.317H263.451C264.18 109.317 264.879 109.027 265.394 108.511C265.91 107.996 266.199 107.296 266.199 106.567C266.199 105.838 265.91 105.139 265.394 104.623C264.879 104.107 264.18 103.818 263.451 103.818H219.108C218.38 103.82 217.683 104.111 217.168 104.626C216.654 105.141 216.363 105.839 216.361 106.567C216.364 106.915 216.435 107.259 216.568 107.58H209.17C208.441 107.58 207.742 107.87 207.227 108.385C206.712 108.901 206.422 109.6 206.422 110.329C206.422 111.059 206.712 111.758 207.227 112.274C207.742 112.789 208.441 113.079 209.17 113.079H225.236C224.844 113.565 224.629 114.171 224.629 114.795C224.63 115.525 224.92 116.224 225.435 116.74C225.95 117.256 226.648 117.547 227.377 117.55H271.694C272.403 117.52 273.073 117.216 273.564 116.704C274.055 116.191 274.329 115.508 274.329 114.798C274.329 114.088 274.055 113.405 273.564 112.892C273.073 112.38 272.403 112.076 271.694 112.046Z" fill="#BEE3F8"/>
<path d="M348.888 336.214C348.73 337.261 348.434 338.282 348.008 339.252C349.738 339.892 351.542 340.308 353.377 340.493C353.494 340.517 353.616 340.499 353.721 340.442C353.858 340.336 353.837 340.123 353.817 339.936C353.783 338.934 353.973 337.938 354.374 337.019C355.386 334.2 356.384 331.378 357.369 328.553C355.618 327.758 351.995 328.239 350.518 329.565C349.157 330.791 349.217 334.502 348.888 336.214Z" fill="#A1616A"/>
<path d="M373.997 340.938C373.942 341.056 373.911 341.183 373.906 341.313C373.906 341.764 374.503 341.921 374.954 341.961C377.126 342.16 379.269 342.607 381.34 343.293C381.593 342.543 381.239 341.738 381.228 340.953C381.228 339.86 381.871 338.887 382.271 337.87C382.984 336.072 382.929 334.077 382.863 332.143C381.132 332.259 377.003 331.459 376.037 333.252C375.5 334.264 375.531 335.783 375.288 336.897C374.96 338.275 374.528 339.626 373.997 340.938Z" fill="#A1616A"/>
<path d="M363.705 263.117L359.15 263.385C358.854 263.369 358.562 263.455 358.321 263.628C358.127 263.848 358.018 264.13 358.012 264.423C357.405 268.98 358.472 273.634 357.906 278.191C357.678 279.983 357.202 281.735 356.833 283.497C356.21 286.439 355.871 289.432 355.532 292.419C355.311 293.899 355.253 295.398 355.36 296.89C355.492 298.146 355.866 299.372 355.912 300.632C355.908 302.124 355.648 303.604 355.143 305.007C354.386 307.42 353.439 309.768 352.309 312.03C351.332 313.99 350.214 315.899 349.622 318.005C348.681 321.357 349.116 325.008 347.998 328.305C347.719 329.115 347.345 329.95 347.492 330.791C347.689 331.879 348.747 332.654 349.835 332.862C350.935 332.999 352.051 332.915 353.119 332.614C354.895 332.234 356.782 331.793 358.032 330.477C358.759 329.607 359.316 328.607 359.672 327.53C360.497 325.504 361.316 323.449 362.07 321.383C362.395 320.404 362.783 319.449 363.234 318.522C363.649 317.732 364.165 317.003 364.605 316.213C365.33 314.856 365.92 313.432 366.366 311.96C369.615 301.984 370.607 291.199 375.515 281.933C375.748 281.492 375.778 280.92 376.021 280.505C376.496 282.013 376.725 283.588 376.699 285.168C376.811 288.76 376.725 292.356 376.441 295.938C376.239 298.551 375.935 301.159 375.875 303.782C375.875 304.977 375.875 306.177 375.9 307.377V308.354C375.94 310.061 375.981 311.767 376.148 313.463C376.861 320.471 374.655 327.287 375.45 334.285C375.455 334.533 375.536 334.773 375.682 334.973C376.021 335.338 376.624 335.14 377.084 334.943C378.603 334.284 380.221 333.88 381.871 333.748C382.374 333.754 382.871 333.644 383.323 333.424C384.052 332.988 384.259 332.041 384.391 331.201C385.494 324.385 386.596 317.57 387.695 310.754C387.988 309.124 388.197 307.479 388.323 305.828C388.449 303.681 388.292 301.524 388.5 299.387C388.788 296.349 390.018 293.462 390.939 290.576C391.415 289.057 391.895 287.563 392.331 286.044C392.766 284.525 393.165 282.951 393.52 281.391C394.127 278.677 394.603 275.877 394.183 273.127C393.763 270.378 392.315 267.664 389.876 266.337C388.09 265.36 385.995 265.213 383.976 264.99C378.212 264.357 372.469 262.965 366.695 263.471C365.693 263.562 364.737 263.056 363.705 263.117Z" fill="#2A4365"/>
<path d="M350.933 356.058C351.237 355.585 351.479 355.074 351.651 354.539L353.519 349.475C354.109 347.964 354.616 346.42 355.037 344.852C355.497 342.978 355.704 341.05 355.654 339.12C353.753 339.109 351.862 338.843 350.032 338.331C349.342 338.091 348.625 337.94 347.897 337.88C347.399 337.894 346.91 338.008 346.458 338.215C346.005 338.421 345.599 338.717 345.263 339.084C344.927 339.451 344.668 339.882 344.502 340.351C344.335 340.82 344.264 341.317 344.294 341.814C344.346 342.119 344.373 342.427 344.375 342.736C344.335 343.043 344.246 343.343 344.112 343.622L342.118 348.483C341.554 349.659 341.211 350.929 341.106 352.23C340.964 356.777 348.064 360.195 350.933 356.058Z" fill="#2B6CB0"/>
<path d="M370.162 355.617C370.06 356.379 370.06 357.15 370.162 357.911C370.556 360.053 372.626 361.678 374.797 361.83C375.889 361.867 376.974 361.633 377.955 361.15C378.935 360.667 379.782 359.949 380.419 359.06C380.831 358.519 381.147 357.911 381.355 357.263C381.525 356.639 381.63 355.999 381.669 355.354L382.473 346.832C382.59 345.637 383.075 343.91 382.473 342.781C381.967 341.824 380.738 341.51 379.791 341.151C378.219 340.506 376.514 340.25 374.822 340.406C371.872 340.655 371.902 343.667 371.457 346.073C370.877 349.239 370.445 352.42 370.162 355.617Z" fill="#2B6CB0"/>
<path d="M371.037 182.541C369.676 184.449 367.692 185.852 366.356 187.781C365.146 189.541 364.54 191.647 364.631 193.782C364.676 194.875 364.904 195.994 364.631 197.053C364.36 197.862 363.914 198.602 363.325 199.22C361.124 201.803 358.244 203.718 355.011 204.749C354.622 204.871 354.136 205.134 354.232 205.529C354.3 205.703 354.428 205.848 354.591 205.939L361.17 210.653C365.031 213.423 368.912 216.223 373.183 218.294C380.799 221.989 389.342 223.334 397.725 222.158C396.651 220.478 395.984 218.571 395.777 216.588C395.524 214.208 395.949 211.808 395.903 209.413C395.868 206.973 395.352 204.564 394.385 202.324C393.818 201.022 393.1 199.792 392.665 198.44C392.207 196.79 391.962 195.089 391.936 193.377L391.597 187.71C391.583 186.659 391.425 185.615 391.126 184.606C390.842 183.834 390.435 183.113 389.922 182.47C387.513 179.32 383.85 177.973 380.014 177.644C378.339 177.502 376.29 177.366 374.746 178.095C372.899 179.001 372.15 180.991 371.037 182.541Z" fill="#2D3748"/>
<path d="M370.41 202.977C370.204 203.499 369.884 203.968 369.473 204.35C369.062 204.732 368.571 205.017 368.036 205.185C366.965 205.519 365.849 205.689 364.727 205.691L362.313 205.802C362.046 205.779 361.78 205.859 361.569 206.025C361.439 206.176 361.364 206.367 361.357 206.567C361.205 207.853 361.954 209.053 362.703 210.112C365.102 213.474 367.976 216.669 371.725 218.385C374.584 219.695 377.783 220.065 380.865 219.443C383.947 218.821 386.752 217.238 388.88 214.922C389.126 214.7 389.293 214.403 389.355 214.076C389.345 213.833 389.273 213.596 389.145 213.389C389.018 213.181 388.839 213.01 388.627 212.891C387.827 212.299 386.886 211.914 386.096 211.327C384.739 210.29 383.771 208.825 383.349 207.17C382.932 205.523 382.854 203.809 383.121 202.131C380.12 201.276 376.851 201.954 373.846 201.119C373.142 200.926 371.822 200.187 371.083 200.612C370.344 201.038 370.642 202.258 370.41 202.977Z" fill="#A1616A"/>
<path opacity="0.1" d="M370.41 202.977C370.204 203.499 369.884 203.968 369.473 204.35C369.062 204.732 368.571 205.017 368.036 205.185C366.965 205.519 365.849 205.689 364.727 205.691L362.313 205.802C362.046 205.779 361.78 205.859 361.569 206.025C361.439 206.176 361.364 206.367 361.357 206.567C361.205 207.853 361.954 209.053 362.703 210.112C365.102 213.474 367.976 216.669 371.725 218.385C374.584 219.695 377.783 220.065 380.865 219.443C383.947 218.821 386.752 217.238 388.88 214.922C389.126 214.7 389.293 214.403 389.355 214.076C389.345 213.833 389.273 213.596 389.145 213.389C389.018 213.181 388.839 213.01 388.627 212.891C387.827 212.299 386.886 211.914 386.096 211.327C384.739 210.29 383.771 208.825 383.349 207.17C382.932 205.523 382.854 203.809 383.121 202.131C380.12 201.276 376.851 201.954 373.846 201.119C373.142 200.926 371.822 200.187 371.083 200.612C370.344 201.038 370.642 202.258 370.41 202.977Z" fill="black"/>
<path d="M378.036 207.99C383.617 207.99 388.141 203.463 388.141 197.878C388.141 192.293 383.617 187.766 378.036 187.766C372.455 187.766 367.93 192.293 367.93 197.878C367.93 203.463 372.455 207.99 378.036 207.99Z" fill="#A1616A"/>
<path d="M385.388 208.182C383.517 208.987 381.576 209.618 379.589 210.066C377.589 210.511 375.506 210.397 373.567 209.737C372.255 209.157 371.005 208.445 369.838 207.61C367.743 206.268 365.456 205.078 362.976 204.835C361.817 204.714 360.552 204.835 359.636 205.554C358.775 206.341 358.248 207.428 358.164 208.592C357.83 211.003 358.402 213.433 358.913 215.813C360.851 224.852 361.949 234.305 359.778 243.298C358.639 248.073 359.869 253.04 360.036 257.947C360.016 259.633 360.239 261.312 360.699 262.934C361.23 264.529 362.303 266.023 363.851 266.676C365.294 267.284 366.928 267.097 368.487 266.97C370.344 266.823 372.282 266.798 373.967 267.578C375.161 268.135 376.279 269.097 377.585 268.98C378.253 268.919 378.86 268.575 379.523 268.474C380.854 268.251 382.129 268.98 383.338 269.578C386.335 271.062 389.612 271.892 392.953 272.013C394.658 267.998 393.778 263.481 393.965 259.121C394.041 257.491 394.284 255.871 394.38 254.24C394.461 252.274 394.436 250.305 394.304 248.341L393.687 235.075C393.51 231.464 395.352 227.93 395.205 224.325C395.103 222.645 394.871 220.976 394.512 219.332C394.4 218.775 394.284 218.223 394.127 217.682C393.014 213.879 389.811 211.099 386.749 208.603C386.576 208.424 386.36 208.292 386.122 208.218C385.884 208.145 385.632 208.132 385.388 208.182Z" fill="#BEE3F8"/>
<path d="M368.497 267.39C368.537 270.935 367.262 274.363 366.012 277.689C365.628 278.702 365.157 279.826 364.175 280.297C363.194 280.768 362.096 280.464 361.139 280.09C360.247 279.751 359.38 279.35 358.543 278.89C357.663 278.383 356.671 277.841 355.725 278.165C354.566 278.56 354.207 280.004 354.05 281.204C352.468 281.224 350.886 281.128 349.318 280.915C349.171 280.906 349.029 280.861 348.904 280.783C348.749 280.633 348.655 280.431 348.64 280.216C348.478 279.371 348.311 278.53 348.134 277.684C348.084 277.421 347.891 277.072 347.628 277.178C347.841 273.897 347.158 270.631 346.91 267.355C346.767 265.694 346.784 264.024 346.96 262.367C347.192 260.71 347.51 259.065 347.912 257.44C348.691 253.967 350.189 250.438 350.275 246.913C350.292 246.205 350.247 245.497 350.138 244.797C349.423 240.378 348.711 235.956 348.003 231.53C347.821 230.426 347.644 229.312 347.385 228.224C347.193 227.414 347.011 226.629 346.804 225.849C346.677 225.373 346.54 224.902 346.384 224.426C347.733 220.713 349.082 217 350.432 213.286C350.74 212.372 351.111 211.48 351.545 210.618C352.561 208.711 354.143 207.166 356.074 206.197C356.65 205.979 357.169 205.632 357.592 205.185C357.789 204.926 357.911 204.613 358.098 204.344C358.811 203.331 360.274 203.25 361.493 203.473C362.612 203.671 363.771 204.096 364.449 204.992C364.718 205.403 364.935 205.845 365.096 206.309C365.906 208.273 366.719 210.236 367.535 212.198C368.229 212.532 368.547 213.438 368.547 214.223C368.547 215.681 368.34 217.135 368.401 218.593C368.401 218.699 368.401 218.801 368.431 218.907C368.613 220.218 369.539 221.322 369.853 222.639C371.057 227.677 369.301 232.862 368.269 237.956C368.229 238.158 368.188 238.356 368.153 238.558C367.59 241.517 367.319 244.524 367.343 247.536C367.34 248.786 367.428 250.035 367.606 251.273C367.773 252.362 368.041 253.435 368.163 254.534C368.279 256.061 368.279 257.595 368.163 259.121C368.021 261.861 368.466 264.62 368.497 267.39Z" fill="#2B6CB0"/>
<path d="M372.666 223.991C373.021 224.609 373.219 225.304 373.243 226.016C373.241 226.323 373.134 226.619 372.94 226.857C372.788 227.002 372.603 227.107 372.401 227.163C372.198 227.218 371.985 227.223 371.781 227.176C371.375 227.082 370.992 226.91 370.652 226.669C370.193 226.424 369.818 226.046 369.575 225.586C369.493 225.367 369.438 225.139 369.413 224.907L369.144 223.196C369.065 222.863 369.065 222.516 369.144 222.183C369.372 221.479 370.394 220.234 371.169 220.841C371.943 221.449 372.287 223.181 372.666 223.991Z" fill="#454B69"/>
<path d="M402.289 226.806C401.991 226.026 401.1 225.697 400.371 225.287C398.853 224.441 397.801 222.963 397.001 221.423C396.202 219.884 395.605 218.244 394.739 216.745C394.608 216.471 394.409 216.234 394.163 216.056C394.036 215.972 393.886 215.931 393.734 215.941C393.582 215.95 393.438 216.008 393.323 216.107C393.215 216.246 393.15 216.413 393.135 216.588C392.953 217.707 393.272 218.836 393.444 219.955C393.719 221.854 393.574 223.791 393.019 225.628C392.465 227.465 391.515 229.159 390.236 230.588C389.188 231.748 387.888 232.766 387.326 234.224C386.978 235.371 386.875 236.579 387.023 237.769L387.372 244.23C387.692 250.802 386.949 257.384 385.17 263.719C384.158 267.365 382.448 271.046 383.146 274.763C383.409 276.186 384.027 277.598 383.774 279.026C383.693 279.297 383.693 279.586 383.774 279.857C383.893 280.06 384.069 280.223 384.28 280.328L387.645 282.525L390.681 273.527C390.963 272.76 391.188 271.973 391.354 271.173C391.491 270.258 391.557 269.333 391.551 268.408C391.757 260.314 392.803 252.264 394.674 244.387C394.906 243.25 395.245 242.138 395.686 241.065C396.561 239.095 398.034 237.465 399.486 235.865C399.521 235.12 399.425 234.376 399.486 233.627C399.493 232.321 399.679 231.023 400.037 229.768C400.432 228.538 401.11 227.353 402.289 226.806Z" fill="#454B69"/>
<path d="M397.183 235.211C397.066 237.343 397.098 239.48 397.28 241.607L397.786 250.083C397.798 251.217 397.968 252.343 398.292 253.43C398.696 254.585 399.445 255.597 399.835 256.762C399.967 257.157 400.058 257.572 400.189 257.972C400.356 258.478 400.584 258.919 400.796 259.39C402.163 262.484 402.537 265.917 402.633 269.294C402.729 272.671 402.557 276.059 402.902 279.421C402.027 279.664 401.109 279.709 400.215 279.553C399.885 279.461 399.544 279.415 399.202 279.416C398.909 279.457 398.623 279.539 398.352 279.659C397.153 280.091 395.873 280.257 394.603 280.143C393.333 280.029 392.104 279.639 391 279.001C390.339 278.592 389.711 278.132 389.122 277.624C388.623 277.243 388.188 276.783 387.837 276.262C387.438 275.504 387.238 274.657 387.255 273.801C387.139 270.362 388.267 267.021 389.031 263.674C389.71 260.43 390.216 257.153 390.549 253.855C391.111 249.03 390.959 244.068 392.067 239.333C392.17 238.647 392.449 238 392.877 237.455C393.254 237.093 393.697 236.807 394.183 236.614C395.169 236.133 396.176 235.677 397.183 235.211Z" fill="#2B6CB0"/>
<path opacity="0.1" d="M402.289 226.806C401.991 226.026 401.1 225.697 400.371 225.287C398.853 224.441 397.801 222.963 397.001 221.423C396.202 219.884 395.605 218.244 394.739 216.745C394.608 216.471 394.409 216.234 394.163 216.056C394.036 215.972 393.886 215.931 393.734 215.941C393.582 215.95 393.438 216.008 393.323 216.107C393.215 216.246 393.15 216.413 393.135 216.588C392.953 217.707 393.272 218.836 393.444 219.955C393.719 221.854 393.574 223.791 393.019 225.628C392.465 227.465 391.515 229.159 390.236 230.588C389.188 231.748 387.888 232.766 387.326 234.224C386.978 235.371 386.875 236.579 387.023 237.769L387.372 244.23C387.692 250.802 386.949 257.384 385.17 263.719C384.158 267.365 382.448 271.046 383.146 274.763C383.409 276.186 384.027 277.598 383.774 279.026C383.693 279.297 383.693 279.586 383.774 279.857C383.893 280.06 384.069 280.223 384.28 280.328L387.645 282.525L390.681 273.527C390.963 272.76 391.188 271.973 391.354 271.173C391.491 270.258 391.557 269.333 391.551 268.408C391.757 260.314 392.803 252.264 394.674 244.387C394.906 243.25 395.245 242.138 395.686 241.065C396.561 239.095 398.034 237.465 399.486 235.865C399.521 235.12 399.425 234.376 399.486 233.627C399.493 232.321 399.679 231.023 400.037 229.768C400.432 228.538 401.11 227.353 402.289 226.806Z" fill="#2D3748"/>
<path d="M398.539 279.999C398.43 280.379 398.199 280.714 397.882 280.951C397.543 281.143 396.991 280.981 396.961 280.591C396.394 280.515 395.949 281.183 395.402 281.229C394.856 281.275 394.35 280.723 393.813 280.844C393.469 280.935 393.145 281.3 392.832 281.138C392.7 281.072 392.619 280.93 392.482 280.88C392.265 280.809 392.057 281.011 391.835 281.062C391.364 281.168 391.02 280.591 391.005 280.11C390.99 279.629 391.131 279.097 390.909 278.682C390.882 278.612 390.829 278.554 390.762 278.52C390.61 278.449 390.443 278.591 390.342 278.728C389.967 279.234 389.861 279.938 389.482 280.464C389.102 280.991 388.196 281.239 387.852 280.692C387.717 280.406 387.692 280.08 387.781 279.776C388.009 278.48 388.515 277.087 389.679 276.479C390.691 275.973 391.906 276.165 393.019 276.398C394.567 276.736 396.114 277.085 397.659 277.447C398.069 277.543 399.051 277.593 399.228 278.069C399.405 278.545 398.701 279.594 398.539 279.999Z" fill="#A1616A"/>
<path d="M380.313 190.738C380.819 193.468 382.377 195.873 383.627 198.359C384.877 200.845 385.874 203.671 385.196 206.365C384.906 207.291 384.568 208.202 384.184 209.094C383.681 210.673 383.332 212.298 383.141 213.945C382.807 216.183 382.473 218.456 382.741 220.704C383.01 222.953 383.966 225.211 385.778 226.578L385.636 225.565C386.404 225.972 387.122 226.467 387.776 227.039C388.503 225.755 389.016 224.361 389.294 222.912L392.73 225.581C394.248 226.745 395.949 227.971 397.831 227.738L396.313 224.239C395.893 223.267 395.473 222.299 394.977 221.363C394.642 220.81 394.367 220.222 394.157 219.611C394.027 219.08 393.953 218.537 393.935 217.99C393.328 209.047 391.66 200.208 388.966 191.66C388.429 189.702 387.624 187.827 386.572 186.09C386.057 185.272 385.378 184.571 384.578 184.029C383.318 183.224 381.77 183.052 380.282 182.9C379.245 182.753 378.193 182.729 377.15 182.829C376.087 183.004 375.06 183.357 374.114 183.872C371.113 185.404 368.665 187.835 367.11 190.825C365.968 192.987 365.421 195.414 365.527 197.858C365.724 200.44 368.183 199.265 369.843 198.622C373.952 197.017 377.899 194.526 380.313 190.738Z" fill="#2D3748"/>
<path opacity="0.1" d="M372.666 223.991C373.021 224.609 373.219 225.304 373.243 226.016C373.241 226.323 373.134 226.619 372.94 226.857C372.788 227.002 372.603 227.107 372.401 227.163C372.198 227.218 371.985 227.223 371.781 227.176C371.375 227.082 370.992 226.91 370.652 226.669C370.193 226.424 369.818 226.046 369.575 225.586C369.493 225.367 369.438 225.139 369.413 224.907L369.144 223.196C369.065 222.863 369.065 222.516 369.144 222.183C369.372 221.479 370.394 220.234 371.169 220.841C371.943 221.449 372.287 223.181 372.666 223.991Z" fill="black"/>
<path d="M375.829 206.283L373.932 220.507L382.271 220.001L384.983 206.283H375.829Z" fill="#454B69"/>
<path d="M379.933 211.15C380.282 211.15 380.566 210.866 380.566 210.517C380.566 210.167 380.282 209.884 379.933 209.884C379.584 209.884 379.301 210.167 379.301 210.517C379.301 210.866 379.584 211.15 379.933 211.15Z" fill="white"/>
<g opacity="0.1">
<path opacity="0.1" d="M385.413 204.653C385.499 204.405 385.575 204.147 385.641 203.904C386.314 201.205 385.317 198.379 384.067 195.893C382.817 193.407 381.279 191.007 380.758 188.272C378.344 192.06 374.407 194.551 370.293 196.151C368.634 196.794 366.169 197.964 365.972 195.387C365.924 194.812 365.924 194.235 365.972 193.66C365.581 194.999 365.427 196.395 365.516 197.787C365.714 200.369 368.173 199.195 369.833 198.551C373.952 196.956 377.884 194.465 380.297 190.678C380.803 193.407 382.362 195.812 383.612 198.273C384.624 200.278 385.459 202.476 385.413 204.653Z" fill="black"/>
<path opacity="0.1" d="M393.181 223.12C392.034 222.235 390.889 221.346 389.745 220.451C389.467 221.902 388.954 223.298 388.227 224.583C387.574 224.008 386.855 223.512 386.086 223.105L386.228 224.117C384.427 222.75 383.47 220.492 383.192 218.244C382.914 215.995 383.253 213.722 383.587 211.484C383.622 211.241 383.663 210.977 383.698 210.755C383.46 211.767 383.303 212.836 383.146 213.884C382.812 216.127 382.478 218.396 382.747 220.644C383.015 222.892 383.971 225.15 385.783 226.517L385.641 225.505C386.408 225.915 387.126 226.411 387.782 226.983C388.507 225.699 389.019 224.305 389.3 222.856C390.447 223.744 391.592 224.634 392.736 225.525C394.254 226.685 395.954 227.915 397.836 227.682L396.743 225.15C395.453 224.831 394.259 223.96 393.181 223.12Z" fill="black"/>
</g>
<path d="M371.255 213.853C372.043 212.803 372.998 211.889 374.083 211.15C374.251 211.026 374.458 210.968 374.665 210.988C374.827 211.023 374.964 211.144 375.131 211.175C375.322 211.189 375.513 211.143 375.677 211.043L378.015 209.919C378.357 209.724 378.74 209.613 379.133 209.595C379.331 209.594 379.523 209.665 379.672 209.794C379.822 209.924 379.92 210.103 379.948 210.299C379.948 210.734 379.518 211.028 379.133 211.246C377.973 211.907 376.875 212.673 375.854 213.534C375.348 213.985 374.772 214.729 375.166 215.307C375.333 215.473 375.535 215.599 375.758 215.673C375.981 215.748 376.219 215.77 376.452 215.737C377.3 215.777 378.149 215.713 378.982 215.545C379.65 215.378 380.277 215.079 380.95 214.922C381.568 214.798 382.197 214.736 382.827 214.735C383.196 214.678 383.572 214.759 383.885 214.962C384.163 215.2 384.138 215.773 383.779 215.843C384.285 216.517 383.839 217.509 383.177 218.016C382.514 218.522 381.659 218.73 380.965 219.16C381.775 218.871 382.731 218.593 383.45 219.069C383.558 219.132 383.639 219.233 383.678 219.352C383.723 219.59 383.47 219.773 383.247 219.859C379.928 221.408 375.996 220.872 372.52 222.021C371.048 222.51 369.691 223.294 368.532 224.325C369.074 223.819 365.739 220.274 366.027 219.261C366.26 218.431 367.935 217.373 368.558 216.73C369.489 215.822 370.388 214.863 371.255 213.853Z" fill="#A1616A"/>
<path opacity="0.1" d="M371.128 229.95C371.07 230.411 371.131 230.878 371.305 231.307C371.578 232.452 371.179 233.652 370.627 234.695C369.989 235.877 369.193 236.966 368.259 237.931C367.151 239.077 365.956 240.137 364.686 241.1C362.202 243.051 359.599 244.847 356.894 246.478C356.213 246.948 355.448 247.283 354.642 247.465C354.014 247.544 353.379 247.533 352.754 247.435C351.913 247.363 351.082 247.193 350.28 246.929C350.297 246.22 350.252 245.512 350.143 244.812C349.428 240.393 348.716 235.971 348.008 231.545C347.826 230.442 347.649 229.328 347.391 228.239C347.198 227.429 347.016 226.644 346.809 225.864C346.809 225.864 346.809 225.824 346.809 225.809C347.315 224.532 348.797 223.722 348.944 222.365C351.085 222.163 353.093 221.925 355.239 221.727C355.532 223.732 355.392 225.776 354.829 227.723C354.994 227.735 355.158 227.696 355.299 227.609C355.44 227.523 355.55 227.394 355.613 227.241C355.77 226.953 355.821 226.619 355.952 226.315C356.458 225.16 357.941 224.887 358.989 224.219C360.831 223.074 361.625 220.593 363.609 219.732C363.75 219.654 363.914 219.625 364.074 219.651C364.509 219.768 364.58 220.532 365.051 220.502C365.196 220.474 365.327 220.4 365.425 220.289C366.235 219.555 367.247 218.947 368.051 218.218C368.163 218.436 368.269 218.654 368.375 218.871C369.502 221.153 370.627 223.437 371.751 225.722C372.191 226.614 372.682 227.56 373.557 228.031C373.218 229.044 371.447 228.923 371.128 229.95Z" fill="black"/>
<path d="M348.332 221.297C348.19 222.659 346.697 223.469 346.196 224.745C345.994 225.425 345.91 226.134 345.948 226.841C345.898 228.867 345.442 230.801 345.189 232.781C344.936 234.761 344.886 236.832 345.614 238.695C346.05 239.799 346.748 240.802 347.046 241.951C347.249 242.721 347.264 243.551 347.623 244.26C348.408 245.779 350.406 246.174 352.122 246.361C352.746 246.46 353.382 246.47 354.009 246.392C354.817 246.208 355.583 245.873 356.266 245.404C358.969 243.773 361.57 241.977 364.054 240.027C366.366 238.219 368.608 236.214 369.995 233.622C370.546 232.578 370.946 231.378 370.678 230.234C370.499 229.806 370.437 229.337 370.501 228.877C370.819 227.864 372.585 227.971 372.97 226.963C372.095 226.497 371.604 225.55 371.169 224.659L367.47 217.15C366.66 217.884 365.648 218.492 364.843 219.226C364.743 219.335 364.61 219.41 364.464 219.439C364.013 219.469 363.922 218.704 363.487 218.588C363.33 218.563 363.168 218.589 363.027 218.664C361.038 219.53 360.244 222.011 358.402 223.155C357.329 223.824 355.872 224.097 355.365 225.252C355.234 225.55 355.183 225.89 355.026 226.178C354.967 226.335 354.859 226.47 354.718 226.561C354.577 226.652 354.41 226.695 354.242 226.684C354.807 224.739 354.947 222.694 354.652 220.689C352.486 220.861 350.477 221.099 348.332 221.297Z" fill="#2B6CB0"/>
<path d="M398.362 279.659C398.499 279.609 398.636 279.553 398.772 279.512C399.021 279.288 399.197 278.995 399.278 278.671C399.359 278.346 399.342 278.004 399.228 277.689C399.051 277.213 398.069 277.183 397.659 277.067C396.114 276.695 394.567 276.348 393.019 276.024C391.906 275.786 390.686 275.578 389.679 276.1C389.305 276.297 388.996 276.955 388.743 277.289L389.133 277.624C389.553 277.973 389.983 278.317 390.428 278.636C390.467 278.588 390.52 278.552 390.579 278.533C390.638 278.514 390.702 278.513 390.762 278.53C390.829 278.564 390.882 278.622 390.909 278.692C390.962 278.792 390.998 278.9 391.015 279.011C392.118 279.649 393.348 280.037 394.617 280.149C395.886 280.261 397.165 280.094 398.362 279.659Z" fill="#454B69"/>
<path d="M575.855 186.465V229.728C575.855 231.014 573.447 232.062 570.466 232.062H456.338C453.357 232.062 450.943 231.014 450.943 229.728V186.465C450.943 185.174 453.357 183.862 456.338 183.862H570.471C573.452 183.862 575.855 185.174 575.855 186.465Z" fill="#BEE3F8"/>
<path d="M565.214 199.326H505.766V201.428H565.214V199.326Z" fill="#2A4365"/>
<path opacity="0.5" d="M565.214 204.44H505.766V206.542H565.214V204.44Z" fill="#2A4365"/>
<path opacity="0.5" d="M565.214 209.56H505.766V211.661H565.214V209.56Z" fill="#2A4365"/>
<path opacity="0.5" d="M565.214 214.679H505.766V216.78H565.214V214.679Z" fill="#2A4365"/>
<path opacity="0.5" d="M475.688 194.708C472.656 194.706 469.705 195.682 467.272 197.492C464.839 199.302 463.054 201.848 462.182 204.753C461.31 207.658 461.397 210.768 462.431 213.619C463.465 216.471 465.39 218.913 467.921 220.583V218.193C467.923 217.411 468.211 216.657 468.73 216.073C469.249 215.488 469.963 215.113 470.739 215.018C471.215 215.905 471.923 216.646 472.786 217.162C473.649 217.679 474.636 217.952 475.642 217.952C476.648 217.952 477.636 217.679 478.499 217.162C479.362 216.646 480.07 215.905 480.546 215.018C481.322 215.113 482.037 215.488 482.557 216.072C483.076 216.657 483.365 217.411 483.369 218.193V220.644C485.918 218.986 487.863 216.549 488.915 213.695C489.966 210.841 490.067 207.723 489.204 204.807C488.34 201.89 486.557 199.331 484.122 197.512C481.686 195.692 478.728 194.708 475.688 194.708ZM481.887 211.924C481.839 212.016 481.776 212.098 481.7 212.167C481.578 212.249 481.436 212.296 481.29 212.304C481.195 212.309 481.101 212.309 481.006 212.304C480.626 213.596 479.793 214.707 478.661 215.434C477.528 216.16 476.171 216.454 474.84 216.261C473.508 216.068 472.291 215.4 471.411 214.381C470.532 213.363 470.049 212.061 470.051 210.714C470.049 209.748 470.3 208.798 470.78 207.96C470.759 207.947 470.738 207.934 470.719 207.919C470.015 207.337 470.213 205.818 470.901 205.332C471.262 205.128 471.653 204.984 472.06 204.906C473.283 204.55 474.33 203.75 474.995 202.663C475.01 202.947 475 203.232 474.964 203.514C475.076 203.392 475.21 203.293 475.36 203.224C475.51 203.155 475.672 203.116 475.837 203.111C476.002 203.105 476.167 203.132 476.321 203.191C476.475 203.25 476.616 203.339 476.735 203.453C476.882 203.66 477.052 203.851 477.241 204.02C477.434 204.128 477.649 204.188 477.869 204.197L479.271 204.38C479.748 204.34 480.224 204.47 480.614 204.748C481.004 205.027 481.283 205.434 481.401 205.899C481.817 206.852 482.126 207.849 482.322 208.871C482.521 209.91 482.368 210.987 481.887 211.929V211.924Z" fill="#2A4365"/>
<path d="M575.855 65.1019V108.37C575.855 109.656 573.447 110.704 570.466 110.704H456.338C453.357 110.704 450.943 109.656 450.943 108.37V65.1019C450.943 63.8158 453.357 62.4993 456.338 62.4993H570.471C573.452 62.5043 575.855 63.8158 575.855 65.1019Z" fill="#BEE3F8"/>
<path d="M565.214 77.9633H505.766V80.0647H565.214V77.9633Z" fill="#2A4365"/>
<path opacity="0.5" d="M565.214 83.0825H505.766V85.1839H565.214V83.0825Z" fill="#2A4365"/>
<path opacity="0.5" d="M565.214 88.2018H505.766V90.3031H565.214V88.2018Z" fill="#2A4365"/>
<path opacity="0.5" d="M565.214 93.316H505.766V95.4173H565.214V93.316Z" fill="#2A4365"/>
<path opacity="0.5" d="M475.688 73.3504C472.656 73.3484 469.705 74.3246 467.272 76.1342C464.839 77.9437 463.054 80.4901 462.182 83.3953C461.31 86.3006 461.397 89.4098 462.431 92.2614C463.465 95.1131 465.39 97.5551 467.921 99.2251V96.8351C467.922 96.0529 468.21 95.2984 468.729 94.7136C469.248 94.1288 469.963 93.7542 470.739 93.6603C471.215 94.547 471.923 95.2881 472.786 95.8046C473.649 96.3212 474.636 96.594 475.642 96.594C476.648 96.594 477.636 96.3212 478.499 95.8046C479.362 95.2881 480.07 94.547 480.546 93.6603C481.322 93.7541 482.038 94.1285 482.558 94.7132C483.078 95.2978 483.366 96.0524 483.369 96.8351V99.2808C485.919 97.6245 487.866 95.1874 488.918 92.3333C489.97 89.4792 490.072 86.3612 489.208 83.4445C488.344 80.5279 486.56 77.969 484.124 76.1498C481.687 74.3306 478.728 73.3486 475.688 73.3504ZM481.887 90.5664C481.842 90.6596 481.778 90.7424 481.7 90.8095C481.579 90.8936 481.437 90.941 481.29 90.9462C481.195 90.9513 481.101 90.9513 481.006 90.9462C480.626 92.2374 479.794 93.3482 478.662 94.0751C477.53 94.8019 476.174 95.096 474.842 94.9034C473.511 94.7108 472.294 94.0444 471.414 93.0265C470.534 92.0086 470.05 90.7073 470.051 89.3613C470.048 88.3951 470.299 87.4451 470.78 86.6068L470.719 86.5662C470.015 85.9789 470.213 84.4649 470.901 83.9788C471.261 83.7732 471.652 83.6295 472.06 83.5534C473.284 83.1958 474.33 82.3941 474.995 81.3052C475.01 81.5908 475 81.8772 474.964 82.161C475.076 82.0393 475.21 81.941 475.36 81.8717C475.509 81.8024 475.671 81.7636 475.836 81.7575C476.001 81.7514 476.165 81.7781 476.32 81.836C476.474 81.894 476.615 81.9821 476.735 82.0951C476.881 82.3037 477.051 82.4941 477.241 82.6623C477.434 82.7691 477.649 82.8314 477.869 82.8445L479.271 83.0218C479.852 83.0378 480.412 83.2401 480.87 83.599C481.11 83.8745 481.291 84.1969 481.401 84.5459C481.816 85.5015 482.125 86.4999 482.322 87.5233C482.519 88.5579 482.366 89.6286 481.887 90.5664Z" fill="#2A4365"/>
<path d="M519.181 125.53V168.798C519.181 170.084 516.767 171.127 513.787 171.127H399.638C396.662 171.127 394.249 170.084 394.249 168.798V125.53C394.249 124.239 396.662 122.928 399.638 122.928H513.771C516.752 122.928 519.181 124.239 519.181 125.53Z" fill="#BEE3F8"/>
<path d="M508.514 138.392H449.066V140.493H508.514V138.392Z" fill="#2A4365"/>
<path opacity="0.5" d="M418.988 133.774C415.958 133.774 413.008 134.752 410.577 136.561C408.146 138.371 406.362 140.916 405.489 143.82C404.617 146.724 404.703 149.831 405.734 152.682C406.766 155.533 408.688 157.976 411.215 159.648V158.712C411.217 157.929 411.505 157.175 412.024 156.59C412.543 156.005 413.258 155.631 414.034 155.537C414.517 156.416 415.226 157.15 416.09 157.661C416.953 158.172 417.937 158.442 418.94 158.442C419.943 158.442 420.927 158.172 421.79 157.661C422.653 157.15 423.363 156.416 423.846 155.537C424.622 155.631 425.337 156.005 425.856 156.59C426.375 157.175 426.662 157.929 426.664 158.712V159.724C429.223 158.072 431.178 155.634 432.237 152.777C433.295 149.919 433.4 146.795 432.536 143.873C431.671 140.951 429.884 138.387 427.442 136.567C424.999 134.746 422.033 133.766 418.988 133.774ZM424.514 151.658C424.514 153.135 423.927 154.552 422.883 155.597C421.839 156.641 420.424 157.228 418.947 157.228C417.471 157.228 416.055 156.641 415.011 155.597C413.968 154.552 413.381 153.135 413.381 151.658C413.041 150.911 412.854 150.103 412.832 149.282C412.81 148.461 412.952 147.644 413.252 146.88C413.551 146.115 414 145.418 414.574 144.831C415.147 144.244 415.833 143.777 416.589 143.46C416.407 143.178 416.304 142.853 416.292 142.517C416.279 142.182 416.357 141.849 416.518 141.555C416.679 141.26 416.916 141.014 417.204 140.844C417.493 140.673 417.823 140.583 418.158 140.584H418.29C417.975 140.606 417.672 140.707 417.408 140.878C417.143 141.049 416.927 141.285 416.779 141.563C416.63 141.841 416.555 142.152 416.56 142.467C416.565 142.782 416.65 143.091 416.807 143.364H416.863C416.838 143.242 416.826 143.118 416.827 142.994C416.825 142.605 416.947 142.225 417.176 141.911C417.293 141.529 417.529 141.195 417.849 140.958C418.17 140.721 418.559 140.593 418.958 140.594H419.089C418.804 140.614 418.527 140.699 418.281 140.843C418.034 140.987 417.824 141.186 417.667 141.425C417.948 141.239 418.274 141.132 418.611 141.117C418.948 141.102 419.282 141.179 419.578 141.339C419.875 141.499 420.123 141.736 420.295 142.026C420.467 142.316 420.558 142.647 420.557 142.984C420.562 143.053 420.562 143.123 420.557 143.192C421.416 143.423 422.216 143.838 422.899 144.41C423.582 144.981 424.132 145.694 424.511 146.5C424.891 147.306 425.09 148.185 425.096 149.075C425.102 149.966 424.913 150.848 424.544 151.658H424.514Z" fill="#2A4365"/>
<path opacity="0.5" d="M508.514 143.511H449.066V145.612H508.514V143.511Z" fill="#2A4365"/>
<path opacity="0.5" d="M508.514 148.625H449.066V150.726H508.514V148.625Z" fill="#2A4365"/>
<path opacity="0.5" d="M508.514 153.744H449.066V155.846H508.514V153.744Z" fill="#2A4365"/>
</g>
<defs>
<clipPath id="clip0">
<rect width="588" height="363" fill="white"/>
</clipPath>
</defs>
</svg>
