<svg xmlns="http://www.w3.org/2000/svg" width="246" height="180" fill="none" viewBox="0 0 246 180">
    <g clip-path="url(#clip0)">
        <path fill="url(#paint0_linear)" d="M235.783 44.8596H113.644C101.647 44.8596 91.9202 54.697 91.9202 66.8314V142.882C91.9135 144.233 92.1724 145.571 92.6823 146.822C93.1921 148.072 93.9428 149.209 94.8915 150.169C95.8403 151.129 96.9684 151.892 98.2116 152.414C99.4547 152.937 100.788 153.209 102.137 153.216H179.702C182.283 162.166 188.76 174.501 205.077 180L200.472 153.216H235.783C237.132 153.209 238.465 152.937 239.709 152.414C240.952 151.892 242.08 151.129 243.029 150.169C243.977 149.209 244.728 148.072 245.238 146.822C245.748 145.571 246.007 144.233 246 142.882V55.1933C246.007 53.8427 245.748 52.504 245.238 51.2537C244.728 50.0034 243.977 48.866 243.029 47.9064C242.08 46.9468 240.952 46.1838 239.709 45.661C238.465 45.1383 237.132 44.8659 235.783 44.8596Z"/>
        <path fill="#C3DAFE" d="M233.728 47.4232H115.173C112.404 47.4232 109.662 47.9696 107.103 49.0312C104.545 50.0928 102.22 51.6487 100.262 53.6103C98.3039 55.5718 96.7507 57.9005 95.691 60.4634C94.6312 63.0262 94.0858 65.7731 94.0858 68.5472V141.66C94.0858 144.292 95.1297 146.817 96.9878 148.678C98.8459 150.54 101.366 151.585 103.994 151.585H179.286C181.791 160.189 188.087 172.048 203.914 177.334L199.433 151.594H233.714C236.342 151.594 238.862 150.548 240.72 148.687C242.578 146.825 243.622 144.301 243.622 141.668V57.3571C243.624 54.7257 242.583 52.2011 240.728 50.3383C238.873 48.4755 236.355 47.427 233.728 47.4232Z"/>
        <path fill="#2D3748" d="M203.039 66.4032H141.76V74.0769H203.039V66.4032Z"/>
        <path fill="#2D3748" d="M202.694 80.5709H179.713V88.2446H202.694V80.5709Z"/>
        <path fill="#2D3748" d="M202.343 94.7357H157.027V102.409H202.343V94.7357Z"/>
        <path fill="#2D3748" d="M201.997 108.904H146.422V116.577H201.997V108.904Z"/>
        <path fill="#2D3748" d="M201.649 123.068H172.347V130.742H201.649V123.068Z"/>
        <path fill="url(#paint1_linear)" d="M10.1565 0H143.039C148.65 0 153.196 4.61953 153.196 10.3195V97.8977C153.196 103.598 148.65 108.217 143.039 108.217H65.924C63.3565 117.156 56.9078 129.486 40.6928 134.967L45.2731 108.217H10.1706C4.55991 108.217 0.0135828 103.598 0.0135828 97.8977V10.3138C-0.000571437 4.61953 4.54576 0 10.1565 0Z"/>
        <path fill="#EBF4FF" d="M11.6829 2.68555H141.4C144.028 2.68555 146.548 3.73124 148.406 5.5926C150.265 7.45396 151.308 9.97851 151.308 12.6109V96.9222C151.308 99.5546 150.265 102.079 148.406 103.941C146.548 105.802 144.028 106.848 141.4 106.848H66.1256C63.6203 115.451 57.3245 127.311 41.4973 132.597L45.9672 106.848H11.6829C9.05516 106.848 6.53503 105.802 4.67693 103.941C2.81883 102.079 1.77497 99.5546 1.77497 96.9222V12.6194C1.77385 11.3153 2.0293 10.0237 2.52672 8.81851C3.02414 7.61333 3.75378 6.51816 4.67393 5.59561C5.59408 4.67306 6.6867 3.94121 7.88934 3.44188C9.09198 2.94255 10.3811 2.68555 11.6829 2.68555Z"/>
        <path fill="#434190" d="M107.184 18.8893H45.9049V26.563H107.184V18.8893Z"/>
        <path fill="#434190" d="M69.2339 33.0541H46.2531V40.7278H69.2339V33.0541Z"/>
        <path fill="#434190" d="M91.9174 47.219H46.6013V54.8927H91.9174V47.219Z"/>
        <path fill="#434190" d="M102.525 61.3867H46.9495V69.0604H102.525V61.3867Z"/>
        <path fill="#434190" d="M76.5997 75.5516H47.2977V83.2253H76.5997V75.5516Z"/>
    </g>
    <defs>
        <linearGradient id="paint0_linear" x1="168.959" x2="168.959" y1="180" y2="44.8596" gradientUnits="userSpaceOnUse">
            <stop offset="0.01" stop-color="#808080" stop-opacity="0.25"/>
            <stop offset="0.54" stop-color="#808080" stop-opacity="0.12"/>
            <stop offset="1" stop-color="#808080" stop-opacity="0.1"/>
        </linearGradient>
        <linearGradient id="paint1_linear" x1="66801.4" x2="66801.4" y1="82137.1" y2="17900.7" gradientUnits="userSpaceOnUse">
            <stop offset="0.01" stop-color="#808080" stop-opacity="0.25"/>
            <stop offset="0.54" stop-color="#808080" stop-opacity="0.12"/>
            <stop offset="1" stop-color="#808080" stop-opacity="0.1"/>
        </linearGradient>
        <clipPath id="clip0">
            <rect width="246" height="180" fill="white"/>
        </clipPath>
    </defs>
</svg>
